<svg width="40" height="40" viewBox="0 0 40 40" fill="none" xmlns="http://www.w3.org/2000/svg">
<path d="M14.2545 3.50915C11.9689 4.64224 10.0465 6.39313 8.7053 8.56325C7.36414 10.7334 6.65791 13.2359 6.66671 15.787V21.7166C6.66777 22.5871 7.01403 23.4216 7.62954 24.0371C8.24506 24.6527 9.07957 24.9989 9.95004 25H13.3334V35C13.3334 35.442 13.509 35.8659 13.8215 36.1785C14.1341 36.4911 14.558 36.6666 15 36.6666C15.4421 36.6666 15.866 36.4911 16.1786 36.1785C16.4911 35.8659 16.6667 35.442 16.6667 35V4.99998C16.6665 4.71596 16.5937 4.43671 16.4553 4.18869C16.3169 3.94068 16.1174 3.73213 15.8758 3.58281C15.6342 3.43349 15.3585 3.34835 15.0747 3.33546C14.791 3.32256 14.5087 3.38235 14.2545 3.50915ZM13.3334 21.6833L10 21.7166V15.787C9.99504 14.3525 10.2888 12.9327 10.8627 11.618C11.4366 10.3033 12.278 9.12259 13.3334 8.15098V21.6833ZM30 4.99998V11.6666C29.9995 12.1085 29.8237 12.5321 29.5112 12.8445C29.1988 13.157 28.7752 13.3327 28.3334 13.3333V4.99998C28.3334 4.55795 28.1578 4.13403 27.8452 3.82147C27.5327 3.50891 27.1087 3.33331 26.6667 3.33331C26.2247 3.33331 25.8008 3.50891 25.4882 3.82147C25.1756 4.13403 25 4.55795 25 4.99998V13.3333C24.5582 13.3327 24.1346 13.157 23.8222 12.8445C23.5097 12.5321 23.3339 12.1085 23.3334 11.6666V4.99998C23.3334 4.55795 23.1578 4.13403 22.8452 3.82147C22.5327 3.50891 22.1087 3.33331 21.6667 3.33331C21.2247 3.33331 20.8008 3.50891 20.4882 3.82147C20.1756 4.13403 20 4.55795 20 4.99998V11.6666C20.0015 12.9923 20.5287 14.2632 21.4661 15.2006C22.4035 16.1379 23.6744 16.6652 25 16.6666V35C25 35.442 25.1756 35.8659 25.4882 36.1785C25.8008 36.4911 26.2247 36.6666 26.6667 36.6666C27.1087 36.6666 27.5327 36.4911 27.8452 36.1785C28.1578 35.8659 28.3334 35.442 28.3334 35V16.6666C29.659 16.6652 30.9299 16.1379 31.8673 15.2006C32.8047 14.2632 33.3319 12.9923 33.3334 11.6666V4.99998C33.3334 4.55795 33.1578 4.13403 32.8452 3.82147C32.5327 3.50891 32.1087 3.33331 31.6667 3.33331C31.2247 3.33331 30.8008 3.50891 30.4882 3.82147C30.1756 4.13403 30 4.55795 30 4.99998Z" fill="#C1BBEB"/>
</svg>
