<svg width="18" height="18" viewBox="0 0 18 18" fill="none" xmlns="http://www.w3.org/2000/svg">
<g clip-path="url(#clip0_215_2414)">
<path d="M11.2501 2.24503H4.50006C3.87755 2.24503 3.34505 2.61919 3.12005 3.15798L0.855042 8.43366C0.787541 8.60578 0.750042 8.78537 0.750042 8.97994V10.4766C0.750042 11.2997 1.42504 11.9732 2.25005 11.9732H6.98256L6.27006 15.3931L6.24756 15.6325C6.24756 15.9393 6.37506 16.2237 6.57756 16.4258L7.37257 17.2115L12.3151 12.28C12.5851 12.0106 12.7501 11.6365 12.7501 11.2249V3.74167C12.7501 2.91852 12.0751 2.24503 11.2501 2.24503ZM11.2501 11.2249L7.99507 14.4726L9.00007 10.4766H2.25005V8.97994L4.50006 3.74167H11.2501V11.2249ZM17.2501 11.2249H14.2501V2.24503H17.2501V11.2249Z" fill="#FF1111" fill-opacity="0.78"/>
</g>
<defs>
<clipPath id="clip0_215_2414">
<rect width="17.7564" height="17.7167" fill="white" transform="matrix(-1.01372 0 0 -1.01372 18 17.9598)"/>
</clipPath>
</defs>
</svg>
