<svg width="134" height="30" viewBox="0 0 134 30" fill="none" xmlns="http://www.w3.org/2000/svg">
<g filter="url(#filter0_d_215_2265)">
<rect width="134" height="29.7778" rx="11.1162" fill="white"/>
<rect x="0.18527" y="0.18527" width="133.63" height="29.4073" rx="10.9309" stroke="black" stroke-opacity="0.15" stroke-width="0.370539"/>
</g>
<rect x="0.741079" y="0.741079" width="43.1846" height="28.2957" rx="10.3751" fill="white" stroke="#2264D1" stroke-width="1.48216"/>
<g opacity="0.6" clip-path="url(#clip0_215_2265)">
<path d="M72.2116 9.67778H70.7227V8.18889H63.2783V9.67778H61.7894C60.9705 9.67778 60.3005 10.3478 60.3005 11.1667V11.9111C60.3005 13.8094 61.7298 15.3579 63.5686 15.5887C64.0376 16.7053 65.0426 17.5466 66.2561 17.7922V20.1H63.2783V21.5889H70.7227V20.1H67.745V17.7922C68.9584 17.5466 69.9634 16.7053 70.4324 15.5887C72.2712 15.3579 73.7005 13.8094 73.7005 11.9111V11.1667C73.7005 10.3478 73.0305 9.67778 72.2116 9.67778ZM61.7894 11.9111V11.1667H63.2783V14.0104C62.4147 13.6978 61.7894 12.8789 61.7894 11.9111ZM67.0005 16.3778C65.7722 16.3778 64.7672 15.3728 64.7672 14.1444V9.67778H69.2339V14.1444C69.2339 15.3728 68.2289 16.3778 67.0005 16.3778ZM72.2116 11.9111C72.2116 12.8789 71.5863 13.6978 70.7227 14.0104V11.1667H72.2116V11.9111Z" fill="black"/>
</g>
<g opacity="0.6" clip-path="url(#clip1_215_2265)">
<path d="M118.672 14.5762L111.972 7.87621C111.704 7.60821 111.332 7.44443 110.923 7.44443H105.712C104.893 7.44443 104.223 8.11443 104.223 8.93332V14.1444C104.223 14.5539 104.387 14.9261 104.662 15.2016L111.362 21.9016C111.63 22.1696 112.002 22.3333 112.412 22.3333C112.821 22.3333 113.193 22.1696 113.461 21.8941L118.672 16.683C118.948 16.415 119.112 16.0428 119.112 15.6333C119.112 15.2239 118.94 14.8442 118.672 14.5762ZM112.412 20.8519L105.712 14.1444V8.93332H110.923V8.92588L117.623 15.6259L112.412 20.8519Z" fill="black"/>
<path d="M107.573 11.9111C108.189 11.9111 108.689 11.4112 108.689 10.7945C108.689 10.1777 108.189 9.6778 107.573 9.6778C106.956 9.6778 106.456 10.1777 106.456 10.7945C106.456 11.4112 106.956 11.9111 107.573 11.9111Z" fill="black"/>
</g>
<g clip-path="url(#clip2_215_2265)">
<path d="M21.5891 11.1667H23.078V12.6555H21.5891V11.1667ZM21.5891 14.1444H23.078V18.6111H21.5891V14.1444ZM22.3336 7.44443C18.2242 7.44443 14.8891 10.7795 14.8891 14.8889C14.8891 18.9982 18.2242 22.3333 22.3336 22.3333C26.4429 22.3333 29.778 18.9982 29.778 14.8889C29.778 10.7795 26.4429 7.44443 22.3336 7.44443ZM22.3336 20.8444C19.0506 20.8444 16.378 18.1719 16.378 14.8889C16.378 11.6059 19.0506 8.93332 22.3336 8.93332C25.6166 8.93332 28.2891 11.6059 28.2891 14.8889C28.2891 18.1719 25.6166 20.8444 22.3336 20.8444Z" fill="#2264D1"/>
</g>
<defs>
<filter id="filter0_d_215_2265" x="-11.1667" y="-9.67779" width="156.333" height="52.1112" filterUnits="userSpaceOnUse" color-interpolation-filters="sRGB">
<feFlood flood-opacity="0" result="BackgroundImageFix"/>
<feColorMatrix in="SourceAlpha" type="matrix" values="0 0 0 0 0 0 0 0 0 0 0 0 0 0 0 0 0 0 127 0" result="hardAlpha"/>
<feOffset dy="1.48216"/>
<feGaussianBlur stdDeviation="5.55809"/>
<feColorMatrix type="matrix" values="0 0 0 0 0 0 0 0 0 0 0 0 0 0 0 0 0 0 0.1 0"/>
<feBlend mode="normal" in2="BackgroundImageFix" result="effect1_dropShadow_215_2265"/>
<feBlend mode="normal" in="SourceGraphic" in2="effect1_dropShadow_215_2265" result="shape"/>
</filter>
<clipPath id="clip0_215_2265">
<rect width="17.7859" height="17.7859" fill="white" transform="translate(58.0668 5.95552) scale(1.00454)"/>
</clipPath>
<clipPath id="clip1_215_2265">
<rect width="17.7859" height="17.7859" fill="white" transform="translate(102.734 5.95552) scale(1.00454)"/>
</clipPath>
<clipPath id="clip2_215_2265">
<rect width="17.7859" height="17.7859" fill="white" transform="translate(13.4004 5.95552) scale(1.00454)"/>
</clipPath>
</defs>
</svg>
