<svg width="144" height="60" viewBox="0 0 144 60" fill="none" xmlns="http://www.w3.org/2000/svg">
<rect width="60" height="60" rx="16" fill="white"/>
<g clip-path="url(#clip0_215_2831)">
<path d="M27.0306 27.4253C26.3874 27.4253 25.7443 27.4253 25.1032 27.4253C24.0857 27.4253 23.0703 27.4253 22.0529 27.4253C21.8047 27.4253 21.5462 27.446 21.298 27.4191C21.3704 27.4295 21.4449 27.4398 21.5173 27.4481C21.4511 27.4378 21.3911 27.4233 21.3291 27.3985C21.3952 27.4253 21.4614 27.4543 21.5276 27.4812C21.4697 27.4543 21.4159 27.4233 21.3642 27.384C21.4201 27.4274 21.4759 27.4708 21.5317 27.5143C21.4904 27.4791 21.4531 27.4419 21.418 27.4005C21.4614 27.4564 21.5048 27.5122 21.5483 27.568C21.509 27.5163 21.478 27.4646 21.4511 27.4047C21.478 27.4708 21.5069 27.537 21.5338 27.6032C21.509 27.5412 21.4924 27.4812 21.4842 27.415C21.4945 27.4874 21.5048 27.5618 21.5131 27.6342C21.4924 27.4295 21.5069 27.2185 21.5069 27.0138C21.5069 26.5588 21.5069 26.1039 21.5069 25.651C21.5069 24.6253 21.5069 23.5974 21.5069 22.5717C21.5069 22.3236 21.4862 22.065 21.5131 21.8169C21.5028 21.8893 21.4924 21.9637 21.4842 22.0361C21.4945 21.9699 21.509 21.9099 21.5338 21.8479C21.5069 21.9141 21.478 21.9803 21.4511 22.0464C21.478 21.9885 21.509 21.9348 21.5483 21.8831C21.5048 21.9389 21.4614 21.9947 21.418 22.0506C21.4531 22.0092 21.4904 21.972 21.5317 21.9368C21.4759 21.9803 21.4201 22.0237 21.3642 22.0671C21.4159 22.0278 21.4676 21.9968 21.5276 21.9699C21.4614 21.9968 21.3952 22.0258 21.3291 22.0526C21.3911 22.0278 21.4511 22.0113 21.5173 22.003C21.4449 22.0133 21.3704 22.0237 21.298 22.032C21.5028 22.0113 21.7137 22.0258 21.9185 22.0258C22.3734 22.0258 22.8284 22.0258 23.2813 22.0258C24.307 22.0258 25.3348 22.0258 26.3605 22.0258C26.6087 22.0258 26.8672 22.0051 27.1154 22.032C27.043 22.0216 26.9685 22.0113 26.8962 22.003C26.9623 22.0133 27.0223 22.0278 27.0844 22.0526C27.0182 22.0258 26.952 21.9968 26.8858 21.9699C26.9437 21.9968 26.9975 22.0278 27.0492 22.0671C26.9934 22.0237 26.9375 21.9803 26.8817 21.9368C26.923 21.972 26.9603 22.0092 26.9954 22.0506C26.952 21.9947 26.9086 21.9389 26.8651 21.8831C26.9044 21.9348 26.9355 21.9865 26.9623 22.0464C26.9355 21.9803 26.9065 21.9141 26.8796 21.8479C26.9044 21.9099 26.921 21.9699 26.9293 22.0361C26.9189 21.9637 26.9086 21.8893 26.9003 21.8169C26.921 22.0216 26.9065 22.2326 26.9065 22.4373C26.9065 22.8923 26.9065 23.3472 26.9065 23.8001C26.9065 24.8258 26.9065 25.8537 26.9065 26.8794C26.9065 27.1275 26.9272 27.3861 26.9003 27.6342C26.9106 27.5618 26.921 27.4874 26.9293 27.415C26.9189 27.4812 26.9044 27.5412 26.8796 27.6032C26.9065 27.537 26.9355 27.4708 26.9623 27.4047C26.9355 27.4626 26.9044 27.5163 26.8651 27.568C26.9086 27.5122 26.952 27.4564 26.9954 27.4005C26.9603 27.4419 26.923 27.4791 26.8817 27.5143C26.9375 27.4708 26.9934 27.4274 27.0492 27.384C26.9975 27.4233 26.9458 27.4543 26.8858 27.4812C26.952 27.4543 27.0182 27.4253 27.0844 27.3985C27.0223 27.4233 26.9623 27.4398 26.8962 27.4481C26.9685 27.4378 27.043 27.4274 27.1154 27.4191C27.0885 27.4233 27.0595 27.4253 27.0306 27.4253C26.8155 27.4295 26.5984 27.5143 26.4453 27.6673C26.3026 27.81 26.193 28.0457 26.2034 28.2525C26.2241 28.693 26.5673 29.0901 27.0306 29.0798C27.4359 29.0715 27.8247 28.9205 28.1122 28.631C28.3934 28.3497 28.5423 27.9734 28.5588 27.5784C28.5609 27.5101 28.5588 27.444 28.5588 27.3757C28.5588 26.9745 28.5588 26.5713 28.5588 26.1701C28.5588 25.0264 28.5588 23.8828 28.5588 22.7392C28.5588 22.4642 28.563 22.1891 28.5588 21.9141C28.5506 21.3516 28.2424 20.7829 27.7192 20.5409C27.4876 20.4334 27.2787 20.3755 27.0182 20.3734C26.9872 20.3734 26.9582 20.3734 26.9272 20.3734C25.9821 20.3734 25.037 20.3734 24.0919 20.3734C23.2027 20.3734 22.3134 20.3734 21.4263 20.3734C21.0085 20.3734 20.5991 20.5223 20.3013 20.8222C20.0014 21.122 19.8525 21.5294 19.8525 21.9513C19.8525 22.2739 19.8525 22.5986 19.8525 22.9212C19.8525 24.069 19.8525 25.2167 19.8525 26.3645C19.8525 26.7264 19.8525 27.0883 19.8525 27.4522C19.8525 27.4812 19.8525 27.5101 19.8525 27.5412C19.8546 27.7997 19.9145 28.0127 20.02 28.2422C20.262 28.7654 20.8307 29.0736 21.3932 29.0818C22.2204 29.0922 23.0476 29.0818 23.8748 29.0818C24.8674 29.0818 25.8622 29.0818 26.8548 29.0818C26.9127 29.0818 26.9706 29.0818 27.0285 29.0818C27.4607 29.0818 27.8764 28.7013 27.8557 28.2546C27.8392 27.8038 27.4959 27.4253 27.0306 27.4253ZM27.0306 30.9203C26.2737 30.9203 25.5189 30.9203 24.762 30.9203C23.7238 30.9203 22.6857 30.9203 21.6475 30.9203C21.5628 30.9203 21.478 30.9182 21.3932 30.9203C20.7231 30.9306 20.1606 31.3442 19.9352 31.9708C19.8215 32.2852 19.8546 32.6616 19.8546 32.9924C19.8546 34.1009 19.8546 35.2073 19.8546 36.3157C19.8546 36.7872 19.8546 37.2567 19.8546 37.7282C19.8546 37.8378 19.8546 37.9495 19.8546 38.0591C19.8546 38.4892 20.0159 38.9256 20.3426 39.2172C20.6508 39.4922 21.0251 39.6287 21.4366 39.6287C21.5586 39.6287 21.6786 39.6287 21.8006 39.6287C22.2783 39.6287 22.7581 39.6287 23.2358 39.6287C24.336 39.6287 25.4341 39.6287 26.5343 39.6287C26.6687 39.6287 26.8052 39.6287 26.9396 39.6287C27.2333 39.6287 27.5083 39.5749 27.773 39.4364C28.2673 39.1799 28.5588 38.6298 28.563 38.0839C28.563 37.9888 28.563 37.8957 28.563 37.8006C28.563 36.7542 28.563 35.7057 28.563 34.6593C28.563 34.1361 28.563 33.6149 28.563 33.0917C28.563 32.8518 28.5795 32.6037 28.5568 32.3638C28.5237 31.9832 28.381 31.6131 28.0935 31.3484C27.7999 31.0775 27.4338 30.9286 27.0306 30.9203C26.5984 30.912 26.1827 31.307 26.2034 31.7475C26.2241 32.2025 26.5673 32.5644 27.0306 32.5747C27.0595 32.5747 27.0885 32.5768 27.1174 32.5809C27.0451 32.5706 26.9706 32.5602 26.8982 32.552C26.9644 32.5623 27.0244 32.5768 27.0864 32.6016C27.0202 32.5747 26.9541 32.5457 26.8879 32.5189C26.9458 32.5457 26.9996 32.5768 27.0513 32.6161C26.9954 32.5726 26.9396 32.5292 26.8838 32.4858C26.9251 32.5209 26.9623 32.5582 26.9975 32.5995C26.9541 32.5437 26.9106 32.4878 26.8672 32.432C26.9065 32.4837 26.9375 32.5354 26.9644 32.5954C26.9375 32.5292 26.9086 32.463 26.8817 32.3969C26.9065 32.4589 26.923 32.5189 26.9313 32.585C26.921 32.5127 26.9106 32.4382 26.9024 32.3658C26.923 32.5706 26.9086 32.7815 26.9086 32.9862C26.9086 33.4412 26.9086 33.8962 26.9086 34.3491C26.9086 35.3748 26.9086 36.4026 26.9086 37.4283C26.9086 37.6765 26.9293 37.935 26.9024 38.1832C26.9127 38.1108 26.923 38.0363 26.9313 37.9639C26.921 38.0301 26.9065 38.0901 26.8817 38.1521C26.9086 38.086 26.9375 38.0198 26.9644 37.9536C26.9375 38.0115 26.9065 38.0653 26.8672 38.117C26.9106 38.0611 26.9541 38.0053 26.9975 37.9495C26.9623 37.9908 26.9251 38.0281 26.8838 38.0632C26.9396 38.0198 26.9954 37.9764 27.0513 37.9329C26.9996 37.9722 26.9479 38.0032 26.8879 38.0301C26.9541 38.0032 27.0202 37.9743 27.0864 37.9474C27.0244 37.9722 26.9644 37.9888 26.8982 37.997C26.9706 37.9867 27.0451 37.9764 27.1174 37.9681C26.9127 37.9888 26.7018 37.9743 26.497 37.9743C26.0421 37.9743 25.5871 37.9743 25.1342 37.9743C24.1085 37.9743 23.0807 37.9743 22.0549 37.9743C21.8068 37.9743 21.5483 37.995 21.3001 37.9681C21.3725 37.9784 21.4469 37.9888 21.5193 37.997C21.4531 37.9867 21.3932 37.9722 21.3311 37.9474C21.3973 37.9743 21.4635 38.0032 21.5297 38.0301C21.4718 38.0032 21.418 37.9722 21.3663 37.9329C21.4221 37.9764 21.478 38.0198 21.5338 38.0632C21.4924 38.0281 21.4552 37.9908 21.4201 37.9495C21.4635 38.0053 21.5069 38.0611 21.5503 38.117C21.5111 38.0653 21.48 38.0136 21.4531 37.9536C21.48 38.0198 21.509 38.086 21.5359 38.1521C21.5111 38.0901 21.4945 38.0301 21.4862 37.9639C21.4966 38.0363 21.5069 38.1108 21.5152 38.1832C21.4945 37.9784 21.509 37.7675 21.509 37.5628C21.509 37.1078 21.509 36.6528 21.509 36.1999C21.509 35.1742 21.509 34.1464 21.509 33.1207C21.509 32.8725 21.4883 32.614 21.5152 32.3658C21.5048 32.4382 21.4945 32.5127 21.4862 32.585C21.4966 32.5189 21.5111 32.4589 21.5359 32.3969C21.509 32.463 21.48 32.5292 21.4531 32.5954C21.48 32.5375 21.5111 32.4837 21.5503 32.432C21.5069 32.4878 21.4635 32.5437 21.4201 32.5995C21.4552 32.5582 21.4924 32.5209 21.5338 32.4858C21.478 32.5292 21.4221 32.5726 21.3663 32.6161C21.418 32.5768 21.4697 32.5457 21.5297 32.5189C21.4635 32.5457 21.3973 32.5747 21.3311 32.6016C21.3932 32.5768 21.4531 32.5602 21.5193 32.552C21.4469 32.5623 21.3725 32.5726 21.3001 32.5809C21.5048 32.5602 21.7158 32.5747 21.9205 32.5747C22.3651 32.5747 22.8098 32.5747 23.2544 32.5747C24.276 32.5747 25.2976 32.5747 26.3213 32.5747C26.5591 32.5747 26.7948 32.5747 27.0327 32.5747C27.4649 32.5747 27.8805 32.1942 27.8599 31.7475C27.8392 31.2987 27.4959 30.9203 27.0306 30.9203ZM30.7406 23.6471C31.026 23.6471 31.3093 23.6471 31.5947 23.6471C32.2771 23.6471 32.9617 23.6471 33.6441 23.6471C34.4672 23.6471 35.2902 23.6471 36.1133 23.6471C36.8288 23.6471 37.5423 23.6471 38.2578 23.6471C38.6053 23.6471 38.9527 23.6533 39.3001 23.6471C39.3043 23.6471 39.3105 23.6471 39.3146 23.6471C39.7468 23.6471 40.1625 23.2666 40.1418 22.8199C40.1211 22.3711 39.7778 21.9927 39.3146 21.9927C39.0292 21.9927 38.7459 21.9927 38.4605 21.9927C37.7781 21.9927 37.0935 21.9927 36.4111 21.9927C35.588 21.9927 34.765 21.9927 33.9419 21.9927C33.2264 21.9927 32.5129 21.9927 31.7974 21.9927C31.4499 21.9927 31.1025 21.9865 30.7551 21.9927C30.7509 21.9927 30.7447 21.9927 30.7406 21.9927C30.3084 21.9927 29.8927 22.3732 29.9134 22.8199C29.932 23.2666 30.2774 23.6471 30.7406 23.6471ZM36.0678 25.8061C35.4681 25.8061 34.8684 25.8061 34.2666 25.8061C33.3091 25.8061 32.3537 25.8061 31.3962 25.8061C31.177 25.8061 30.9577 25.8061 30.7385 25.8061C30.3063 25.8061 29.8906 26.1866 29.9113 26.6333C29.932 27.0821 30.2753 27.4605 30.7385 27.4605C31.3383 27.4605 31.938 27.4605 32.5398 27.4605C33.4973 27.4605 34.4527 27.4605 35.4102 27.4605C35.6294 27.4605 35.8486 27.4605 36.0678 27.4605C36.5 27.4605 36.9157 27.08 36.895 26.6333C36.8764 26.1845 36.5331 25.8061 36.0678 25.8061ZM30.7406 34.194C31.026 34.194 31.3093 34.194 31.5947 34.194C32.2771 34.194 32.9617 34.194 33.6441 34.194C34.4672 34.194 35.2902 34.194 36.1133 34.194C36.8288 34.194 37.5423 34.194 38.2578 34.194C38.6053 34.194 38.9527 34.2002 39.3001 34.194C39.3043 34.194 39.3105 34.194 39.3146 34.194C39.7468 34.194 40.1625 33.8134 40.1418 33.3667C40.1211 32.918 39.7778 32.5395 39.3146 32.5395C39.0292 32.5395 38.7459 32.5395 38.4605 32.5395C37.7781 32.5395 37.0935 32.5395 36.4111 32.5395C35.588 32.5395 34.765 32.5395 33.9419 32.5395C33.2264 32.5395 32.5129 32.5395 31.7974 32.5395C31.4499 32.5395 31.1025 32.5333 30.7551 32.5395C30.7509 32.5395 30.7447 32.5395 30.7406 32.5395C30.3084 32.5395 29.8927 32.9201 29.9134 33.3667C29.932 33.8155 30.2774 34.194 30.7406 34.194ZM36.0678 36.353C35.4681 36.353 34.8684 36.353 34.2666 36.353C33.3091 36.353 32.3537 36.353 31.3962 36.353C31.177 36.353 30.9577 36.353 30.7385 36.353C30.3063 36.353 29.8906 36.7335 29.9113 37.1802C29.932 37.6289 30.2753 38.0074 30.7385 38.0074C31.3383 38.0074 31.938 38.0074 32.5398 38.0074C33.4973 38.0074 34.4527 38.0074 35.4102 38.0074C35.6294 38.0074 35.8486 38.0074 36.0678 38.0074C36.5 38.0074 36.9157 37.6269 36.895 37.1802C36.8764 36.7335 36.5331 36.353 36.0678 36.353Z" fill="#A098AE"/>
</g>
<rect x="84" width="60" height="60" rx="16" fill="#F8B602" fill-opacity="0.1"/>
<g clip-path="url(#clip1_215_2831)">
<path d="M110 18H104.667C103.959 18 103.281 18.281 102.781 18.781C102.281 19.2811 102 19.9594 102 20.6667V26C102 26.7072 102.281 27.3855 102.781 27.8856C103.281 28.3857 103.959 28.6667 104.667 28.6667H110C110.707 28.6667 111.386 28.3857 111.886 27.8856C112.386 27.3855 112.667 26.7072 112.667 26V20.6667C112.667 19.9594 112.386 19.2811 111.886 18.781C111.386 18.281 110.707 18 110 18ZM104.667 26V20.6667H110V26H104.667ZM123.333 18H118C117.293 18 116.614 18.281 116.114 18.781C115.614 19.2811 115.333 19.9594 115.333 20.6667V26C115.333 26.7072 115.614 27.3855 116.114 27.8856C116.614 28.3857 117.293 28.6667 118 28.6667H123.333C124.041 28.6667 124.719 28.3857 125.219 27.8856C125.719 27.3855 126 26.7072 126 26V20.6667C126 19.9594 125.719 19.2811 125.219 18.781C124.719 18.281 124.041 18 123.333 18ZM118 26V20.6667H123.333V26H118ZM110 31.3333H104.667C103.959 31.3333 103.281 31.6143 102.781 32.1144C102.281 32.6145 102 33.2928 102 34V39.3333C102 40.0406 102.281 40.7189 102.781 41.219C103.281 41.719 103.959 42 104.667 42H110C110.707 42 111.386 41.719 111.886 41.219C112.386 40.7189 112.667 40.0406 112.667 39.3333V34C112.667 33.2928 112.386 32.6145 111.886 32.1144C111.386 31.6143 110.707 31.3333 110 31.3333ZM104.667 39.3333V34H110V39.3333H104.667ZM123.333 31.3333H118C117.293 31.3333 116.614 31.6143 116.114 32.1144C115.614 32.6145 115.333 33.2928 115.333 34V39.3333C115.333 40.0406 115.614 40.7189 116.114 41.219C116.614 41.719 117.293 42 118 42H123.333C124.041 42 124.719 41.719 125.219 41.219C125.719 40.7189 126 40.0406 126 39.3333V34C126 33.2928 125.719 32.6145 125.219 32.1144C124.719 31.6143 124.041 31.3333 123.333 31.3333ZM118 39.3333V34H123.333V39.3333H118Z" fill="#F8B602"/>
</g>
<defs>
<clipPath id="clip0_215_2831">
<rect x="19.4102" y="19.4117" width="21.1765" height="21.1765" fill="white"/>
</clipPath>
<clipPath id="clip1_215_2831">
<rect width="32" height="32" fill="white" transform="translate(98 14)"/>
</clipPath>
</defs>
</svg>
