<svg width="32" height="32" viewBox="0 0 32 32" fill="none" xmlns="http://www.w3.org/2000/svg">
<path d="M19.9996 15.9999C20.0006 16.1754 19.967 16.3494 19.9006 16.5118C19.8343 16.6743 19.7365 16.822 19.6129 16.9466L14.2796 22.2799C14.0285 22.531 13.688 22.6721 13.3329 22.6721C12.9779 22.6721 12.6373 22.531 12.3863 22.2799C12.1352 22.0289 11.9941 21.6883 11.9941 21.3333C11.9941 20.9782 12.1352 20.6377 12.3863 20.3866L16.7863 15.9999L12.3996 11.6133C12.1812 11.3582 12.067 11.0301 12.08 10.6945C12.0929 10.359 12.2321 10.0406 12.4695 9.80319C12.707 9.56573 13.0253 9.42662 13.3609 9.41366C13.6964 9.40069 14.0245 9.51483 14.2796 9.73327L19.6129 15.0666C19.8593 15.315 19.9981 15.6501 19.9996 15.9999Z" fill="#A098AE"/>
</svg>
