<svg width="42" height="42" viewBox="0 0 42 42" fill="none" xmlns="http://www.w3.org/2000/svg">
<g clip-path="url(#clip0_215_2687)">
<path d="M41.9998 7.97725C40.438 8.66237 38.7737 9.1165 37.0386 9.337C38.8236 8.27125 40.186 6.59651 40.8265 4.57789C39.1622 5.57014 37.3247 6.27101 35.3665 6.66213C33.7862 4.97951 31.534 3.93739 29.077 3.93739C24.31 3.93739 20.4723 7.80663 20.4723 12.55C20.4723 13.2325 20.53 13.8887 20.6718 14.5135C13.5134 14.1644 7.17935 10.7335 2.92424 5.50714C2.18137 6.79601 1.74562 8.27125 1.74562 9.85937C1.74562 12.8414 3.28124 15.4847 5.57023 17.0151C4.18686 16.9888 2.82974 16.5872 1.67999 15.9546C1.67999 15.9808 1.67999 16.015 1.67999 16.0491C1.67999 20.2333 4.66461 23.7088 8.57847 24.5094C7.87759 24.7011 7.11372 24.7929 6.32098 24.7929C5.76973 24.7929 5.21323 24.7614 4.69086 24.6459C5.80648 28.0558 8.97222 30.5627 12.7365 30.644C9.80696 32.9357 6.08735 34.3164 2.06062 34.3164C1.35449 34.3164 0.677247 34.2849 0 34.1983C3.81411 36.6579 8.33434 38.0623 13.2089 38.0623C29.0534 38.0623 37.7159 24.9373 37.7159 13.5606C37.7159 13.18 37.7027 12.8125 37.6844 12.4476C39.3932 11.2349 40.8291 9.72025 41.9998 7.97725Z" fill="white"/>
</g>
<defs>
<clipPath id="clip0_215_2687">
<rect width="41.8812" height="41.8812" fill="white" transform="scale(1.00283)"/>
</clipPath>
</defs>
</svg>
