<svg width="18" height="18" viewBox="0 0 18 18" fill="none" xmlns="http://www.w3.org/2000/svg">
<g clip-path="url(#clip0_215_2411)">
<path d="M6.74992 15.7148H13.4999C14.1224 15.7148 14.6549 15.3406 14.8799 14.8018L17.145 9.52612C17.2125 9.35401 17.25 9.17441 17.25 8.97984V7.4832C17.25 6.66004 16.575 5.98655 15.75 5.98655H11.0174L11.7299 2.56671L11.7524 2.32725C11.7524 2.02044 11.6249 1.73608 11.4224 1.53403L10.6274 0.748288L5.68492 5.67974C5.41491 5.94914 5.24991 6.3233 5.24991 6.73488V14.2181C5.24991 15.0413 5.92492 15.7148 6.74992 15.7148ZM6.74992 6.73488L10.0049 3.48715L8.99993 7.4832H15.75V8.97984L13.4999 14.2181H6.74992V6.73488ZM0.749897 6.73488H3.74991V15.7148H0.749897V6.73488Z" fill="#2FCD82"/>
</g>
<defs>
<clipPath id="clip0_215_2411">
<rect width="17.7564" height="17.7167" fill="white" transform="scale(1.01372)"/>
</clipPath>
</defs>
</svg>
