<svg width="38" height="38" viewBox="0 0 38 38" fill="none" xmlns="http://www.w3.org/2000/svg">
<g clip-path="url(#clip0_215_2691)">
<path d="M37.9628 11.1721C37.8738 9.153 37.5472 7.7649 37.0795 6.56209C36.597 5.28534 35.8547 4.14227 34.8821 3.19202C33.9319 2.22699 32.7812 1.47712 31.5193 1.00215C30.3095 0.534421 28.9287 0.207911 26.9096 0.118889C24.8754 0.0223279 24.2297 0 19.0705 0C13.9113 0 13.2655 0.0223279 11.2389 0.11135C9.21978 0.200371 7.83168 0.527171 6.62917 0.994608C5.35212 1.47712 4.20905 2.21945 3.25881 3.19202C2.29378 4.14227 1.5442 5.29288 1.06893 6.55484C0.601207 7.7649 0.274697 9.14546 0.185676 11.1645C0.0891148 13.1987 0.0667869 13.8445 0.0667869 19.0037C0.0667869 24.1629 0.0891148 24.8087 0.178137 26.8353C0.267158 28.8544 0.593958 30.2425 1.06168 31.4453C1.5442 32.722 2.29378 33.8651 3.25881 34.8153C4.20905 35.7804 5.35966 36.5302 6.62163 37.0052C7.83168 37.4729 9.21224 37.7995 11.2316 37.8885C13.2579 37.9778 13.904 37.9998 19.0632 37.9998C24.2224 37.9998 24.8682 37.9778 26.8948 37.8885C28.9139 37.7995 30.302 37.4729 31.5045 37.0052C34.0583 36.0179 36.0774 33.9988 37.0647 31.4453C37.5322 30.2352 37.859 28.8544 37.948 26.8353C38.037 24.8087 38.0593 24.1629 38.0593 19.0037C38.0593 13.8445 38.0518 13.1987 37.9628 11.1721ZM34.5408 26.6868C34.459 28.5426 34.1473 29.5448 33.8875 30.2129C33.249 31.8683 31.9351 33.1822 30.2796 33.8207C29.6116 34.0805 28.6022 34.3923 26.7536 34.4738C24.7493 34.5631 24.1482 34.5851 19.078 34.5851C14.0078 34.5851 13.3992 34.5631 11.4021 34.4738C9.54629 34.3923 8.54415 34.0805 7.87605 33.8207C7.05224 33.5163 6.30237 33.0337 5.69371 32.4028C5.06273 31.7866 4.58022 31.0442 4.27574 30.2204C4.01593 29.5523 3.70421 28.5426 3.62273 26.6943C3.53341 24.6901 3.51138 24.0887 3.51138 19.0185C3.51138 13.9483 3.53341 13.3396 3.62273 11.3429C3.70421 9.48705 4.01593 8.4849 4.27574 7.81681C4.58022 6.9927 5.06273 6.24312 5.70125 5.63418C6.31715 5.0032 7.05948 4.52068 7.88359 4.2165C8.55169 3.95668 9.56137 3.64496 11.4097 3.56319C13.414 3.47417 14.0154 3.45184 19.0852 3.45184C24.163 3.45184 24.7641 3.47417 26.7611 3.56319C28.6169 3.64496 29.6191 3.95668 30.2872 4.2165C31.111 4.52068 31.8609 5.0032 32.4695 5.63418C33.1005 6.25037 33.583 6.9927 33.8875 7.81681C34.1473 8.4849 34.459 9.4943 34.5408 11.3429C34.6298 13.3472 34.6522 13.9483 34.6522 19.0185C34.6522 24.0887 34.6298 24.6825 34.5408 26.6868Z" fill="white"/>
<path d="M19.0705 9.24201C13.6813 9.24201 9.3088 13.6142 9.3088 19.0037C9.3088 24.3931 13.6813 28.7653 19.0705 28.7653C24.4599 28.7653 28.8321 24.3931 28.8321 19.0037C28.8321 13.6142 24.4599 9.24201 19.0705 9.24201ZM19.0705 25.3358C15.5742 25.3358 12.7383 22.5002 12.7383 19.0037C12.7383 15.5072 15.5742 12.6715 19.0705 12.6715C22.567 12.6715 25.4026 15.5072 25.4026 19.0037C25.4026 22.5002 22.567 25.3358 19.0705 25.3358Z" fill="white"/>
<path d="M31.4971 8.85591C31.4971 10.1144 30.4767 11.1348 29.2179 11.1348C27.9595 11.1348 26.939 10.1144 26.939 8.85591C26.939 7.59714 27.9595 6.57701 29.2179 6.57701C30.4767 6.57701 31.4971 7.59714 31.4971 8.85591Z" fill="white"/>
</g>
<defs>
<clipPath id="clip0_215_2691">
<rect width="37.2277" height="37.2277" fill="white" transform="scale(1.02074)"/>
</clipPath>
</defs>
</svg>
