<svg width="214" height="204" viewBox="0 0 214 204" fill="none" xmlns="http://www.w3.org/2000/svg">
<path opacity="0.07" d="M194.499 85.8169C194.499 86.9225 194.473 88.0281 194.396 89.0599C205.473 97.0937 214 114.316 214 129.475C214 145.985 203.876 153.773 191.381 146.894C191.356 146.869 191.33 146.869 191.304 146.844L112.809 103.678C112.783 103.653 112.758 103.653 112.706 103.629C98.6661 95.8899 87.2796 74.5892 87.2796 56.0402C87.2796 38.6704 97.275 29.8504 110.078 35.1817C111.65 23.2661 120.022 18.1313 130.121 23.7083C134.964 26.3863 139.421 31.0788 142.898 36.7295C147.948 29.5801 156.552 27.7621 166.29 33.118C181.875 41.6677 194.499 65.2778 194.499 85.8169Z" fill="url(#paint0_linear_215_2365)"/>
<path opacity="0.4" d="M181.618 97.6097C181.618 98.7153 181.592 99.8209 181.515 100.853C192.592 108.887 201.119 126.109 201.119 141.268C201.119 157.777 190.995 165.566 178.501 158.686C178.475 158.662 178.449 158.662 178.423 158.637L99.9282 115.471C99.9024 115.446 99.8767 115.446 99.8251 115.422C85.7852 107.683 74.3986 86.382 74.3986 67.833C74.3986 50.4632 84.394 41.6432 97.1975 46.9746C98.7689 35.0589 107.141 29.9242 117.24 35.5012C122.083 38.1791 126.54 42.8717 130.018 48.5224C135.067 41.373 143.671 39.5549 153.409 44.9108C168.995 53.4606 181.618 77.0707 181.618 97.6097Z" fill="url(#paint1_linear_215_2365)"/>
<path opacity="0.2" d="M57.3451 118.64L45.3918 112.056V108.199L57.3451 114.783C58.324 115.324 59.7409 116.405 60.9516 118.075C62.2655 119.869 63.1929 122.129 63.1929 124.586C63.1929 127.288 62.4716 128.836 61.0805 129.278C59.7924 129.696 58.2725 128.983 57.3193 128.468L52.3989 125.765L52.3731 125.74C51.9609 125.495 51.2911 125.274 50.7501 125.421C50.3122 125.544 49.8227 125.962 49.8227 127.46C49.8227 128.959 50.3122 129.893 50.7244 130.433C51.2396 131.121 51.9094 131.612 52.3216 131.809L52.3731 131.833L67.392 140.113V143.97L52.4504 135.74C51.4199 135.224 49.9515 134.143 48.6635 132.423C47.2723 130.556 46.2934 128.173 46.3192 125.519C46.3192 122.891 47.2723 121.539 48.6635 121.171C49.9515 120.827 51.4199 121.318 52.4504 121.932L57.3193 124.61C58.0148 125.003 58.5558 125.175 58.8907 125.053C59.1484 124.979 59.6636 124.61 59.6636 122.645C59.6636 121.392 59.2256 120.557 58.8392 119.992C58.3755 119.353 57.7315 118.861 57.3451 118.64Z" fill="white"/>
<path opacity="0.6" d="M47.9676 111.098C47.9676 114.267 46.0097 115.766 43.6139 114.464C41.2181 113.137 39.2602 109.501 39.2602 106.307C39.2602 103.138 41.2181 101.639 43.6139 102.941C46.0097 104.268 47.9676 107.928 47.9676 111.098Z" fill="#F2994A"/>
<path opacity="0.6" d="M73.4715 145.248C73.4715 148.417 71.5136 149.916 69.1178 148.614C66.722 147.287 64.7641 143.651 64.7641 140.457C64.7641 137.288 66.722 135.789 69.1178 137.091C71.5136 138.418 73.4715 142.078 73.4715 145.248Z" fill="#F2994A"/>
<path opacity="0.07" d="M94.0547 63.6318L171.313 106.159V145.149L94.029 102.622L94.0547 63.6318Z" fill="url(#paint2_linear_215_2365)"/>
<path opacity="0.3" d="M83.7247 68.5454L160.983 111.073V150.063L83.7247 107.535V68.5454Z" fill="url(#paint3_linear_215_2365)"/>
<path opacity="0.6" d="M90.6543 91.7625C90.6543 94.9073 92.6121 98.5188 95.0079 99.8455C97.4037 101.172 99.3616 99.6981 99.3616 96.5533C99.3616 93.4086 97.4037 89.7971 95.0079 88.4704C92.6121 87.1437 90.6543 88.6178 90.6543 91.7625Z" fill="#F2994A"/>
<path opacity="0.15" d="M101.551 97.8308C101.551 99.2804 102.453 100.976 103.587 101.59C104.694 102.204 105.596 101.516 105.596 100.067C105.596 98.617 104.694 96.9218 103.561 96.3076C102.453 95.6934 101.551 96.3813 101.551 97.8308Z" fill="white"/>
<path opacity="0.15" d="M107.76 101.246C107.76 102.695 108.662 104.391 109.795 105.005C110.903 105.619 111.805 104.931 111.805 103.482C111.805 102.032 110.903 100.337 109.77 99.7226C108.662 99.1084 107.76 99.7963 107.76 101.246Z" fill="white"/>
<path opacity="0.15" d="M141.481 107.879V130.064L138.442 128.394V106.209L141.481 107.879Z" fill="white"/>
<path opacity="0.15" d="M148.128 111.565V133.75L145.088 132.079V109.894L148.128 111.565Z" fill="white"/>
<path opacity="0.15" d="M154.8 115.25V137.435L151.76 135.764V113.579L154.8 115.25Z" fill="white"/>
<path opacity="0.07" d="M94.029 116.92L171.287 159.448V198.438L94.029 155.91V116.92Z" fill="url(#paint4_linear_215_2365)"/>
<path opacity="0.3" d="M83.7247 122.08L160.983 164.607V203.597L83.7247 161.07V122.08Z" fill="url(#paint5_linear_215_2365)"/>
<path d="M90.6543 145.297C90.6543 148.441 92.6121 152.053 95.0079 153.38C97.4037 154.706 99.3616 153.232 99.3616 150.087C99.3616 146.943 97.4037 143.331 95.0079 142.005C92.6121 140.678 90.6543 142.152 90.6543 145.297Z" fill="#F2994A" fill-opacity="0.6"/>
<path opacity="0.15" d="M101.551 151.39C101.551 152.839 102.453 154.534 103.587 155.149C104.694 155.763 105.596 155.075 105.596 153.625C105.596 152.176 104.694 150.481 103.561 149.866C102.453 149.252 101.551 149.916 101.551 151.39Z" fill="white"/>
<path opacity="0.15" d="M107.734 154.805C107.734 156.254 108.636 157.949 109.77 158.564C110.877 159.178 111.779 158.49 111.779 157.04C111.779 155.591 110.877 153.896 109.744 153.281C108.636 152.643 107.734 153.331 107.734 154.805Z" fill="white"/>
<path opacity="0.15" d="M141.481 162.175V184.36L138.442 182.69V160.505L141.481 162.175Z" fill="white"/>
<path opacity="0.15" d="M148.128 165.86V188.046L145.088 186.375V164.19L148.128 165.86Z" fill="white"/>
<path opacity="0.15" d="M154.8 169.546V191.731L151.76 190.06V167.875L154.8 169.546Z" fill="white"/>
<path opacity="0.3" d="M15.1218 10.7854L63.2699 37.2946V122.374L15.1218 95.8407V10.7854Z" fill="url(#paint6_linear_215_2365)"/>
<path opacity="0.6" d="M44.8503 41.5941C44.8503 45.8444 42.2742 47.859 39.1055 46.0901C35.9369 44.3212 33.3607 39.4567 33.3607 35.2064C33.3607 30.9561 35.9369 28.9415 39.1055 30.7104C42.2742 32.4793 44.8503 37.3438 44.8503 41.5941Z" fill="#F2C94C"/>
<path opacity="0.6" d="M39.106 49.505C33.9795 46.6551 29.7546 49.333 29.0076 55.4751C28.8788 56.5316 29.7289 57.9565 30.7593 58.5216L47.4785 67.833C48.509 68.398 49.3591 67.9558 49.2303 66.7274C48.4574 59.7254 44.2068 52.3549 39.106 49.505Z" fill="#F2C94C"/>
<path opacity="0.15" d="M24.7822 65.9658L53.4805 81.7632V85.1045L24.7822 69.3071V65.9658Z" fill="white"/>
<path opacity="0.15" d="M27.6938 74.1962L50.4411 86.7014V90.0427L27.6938 77.5375V74.1962Z" fill="white"/>
<path opacity="0.6" d="M33.4898 88.2493L0 69.7985V79.3064L33.4898 97.7572V88.2493Z" fill="#F2C94C"/>
<path opacity="0.2" d="M73.6517 0L80.8134 13.4143C81.7923 15.2569 81.6378 17.0995 80.4527 17.5417C79.2677 17.984 77.5159 16.8293 76.537 14.9866L76.4597 14.8147V29.703C76.4597 31.3982 75.2232 32.0862 73.6775 31.2508C72.1318 30.3909 70.8953 28.3518 70.8953 26.6566V11.7682L70.818 11.8419C69.839 12.6035 68.0615 11.8173 66.9022 10.073C65.7172 8.32864 65.5627 6.31404 66.5416 5.55243L73.6517 0Z" fill="url(#paint7_linear_215_2365)"/>
<path opacity="0.2" d="M73.6519 198.069L66.4902 184.655C65.5112 182.812 65.6658 180.97 66.8508 180.528C68.0359 180.085 69.7876 181.24 70.7666 183.083L70.8439 183.255V168.366C70.8439 166.671 72.0804 165.983 73.6261 166.819C75.1718 167.678 76.4083 169.718 76.4083 171.413V186.301L76.4856 186.227C77.4645 185.466 79.2421 186.252 80.4013 187.996C81.5864 189.741 81.7409 191.755 80.762 192.517L73.6519 198.069Z" fill="url(#paint8_linear_215_2365)"/>
<defs>
<linearGradient id="paint0_linear_215_2365" x1="209.392" y1="38.9" x2="133.265" y2="114.614" gradientUnits="userSpaceOnUse">
<stop stop-color="white"/>
<stop offset="1" stop-color="white" stop-opacity="0"/>
</linearGradient>
<linearGradient id="paint1_linear_215_2365" x1="196.508" y1="50.6929" x2="120.382" y2="126.407" gradientUnits="userSpaceOnUse">
<stop stop-color="white"/>
<stop offset="1" stop-color="white" stop-opacity="0"/>
</linearGradient>
<linearGradient id="paint2_linear_215_2365" x1="131.092" y1="66.7496" x2="133.71" y2="135.727" gradientUnits="userSpaceOnUse">
<stop stop-color="white"/>
<stop offset="1" stop-color="white" stop-opacity="0"/>
</linearGradient>
<linearGradient id="paint3_linear_215_2365" x1="120.787" y1="71.6632" x2="123.405" y2="140.641" gradientUnits="userSpaceOnUse">
<stop stop-color="white"/>
<stop offset="1" stop-color="white" stop-opacity="0"/>
</linearGradient>
<linearGradient id="paint4_linear_215_2365" x1="131.086" y1="120.047" x2="133.705" y2="189.024" gradientUnits="userSpaceOnUse">
<stop stop-color="white"/>
<stop offset="1" stop-color="white" stop-opacity="0"/>
</linearGradient>
<linearGradient id="paint5_linear_215_2365" x1="120.782" y1="125.206" x2="123.4" y2="194.183" gradientUnits="userSpaceOnUse">
<stop stop-color="white"/>
<stop offset="1" stop-color="white" stop-opacity="0"/>
</linearGradient>
<linearGradient id="paint6_linear_215_2365" x1="68.4299" y1="18.2629" x2="28.6572" y2="90.5157" gradientUnits="userSpaceOnUse">
<stop stop-color="white"/>
<stop offset="1" stop-color="white" stop-opacity="0"/>
</linearGradient>
<linearGradient id="paint7_linear_215_2365" x1="78.7481" y1="13.5312" x2="65.9828" y2="20.9928" gradientUnits="userSpaceOnUse">
<stop stop-color="white"/>
<stop offset="1" stop-color="white" stop-opacity="0"/>
</linearGradient>
<linearGradient id="paint8_linear_215_2365" x1="68.5418" y1="184.547" x2="81.3071" y2="177.086" gradientUnits="userSpaceOnUse">
<stop stop-color="white"/>
<stop offset="1" stop-color="white" stop-opacity="0"/>
</linearGradient>
</defs>
</svg>
