<svg width="17" height="12" viewBox="0 0 17 12" fill="none" xmlns="http://www.w3.org/2000/svg">
<path d="M3.44108 9.9596C3.44108 11.5921 5.63839 12 8.21177 12C10.7992 12 12.9824 11.5772 12.9824 9.94541C12.9824 8.31294 10.7851 7.90499 8.21177 7.90499C5.62429 7.90499 3.44108 8.3278 3.44108 9.9596Z" fill="#864AFC"/>
<path opacity="0.4" d="M11.3687 3.17512C11.3687 1.41229 9.9638 0 8.21173 0C6.45966 0 5.05478 1.41229 5.05478 3.17512C5.05478 4.93727 6.45966 6.35024 8.21173 6.35024C9.9638 6.35024 11.3687 4.93727 11.3687 3.17512Z" fill="#864AFC"/>
<path opacity="0.4" d="M12.498 0.529905C12.314 0.529905 12.138 0.550167 11.9661 0.584613C11.9433 0.590016 11.9178 0.601498 11.9043 0.621761C11.8889 0.647427 11.9003 0.681873 11.9171 0.704161C12.4254 1.42145 12.7176 2.29476 12.7176 3.23223C12.7176 4.13053 12.4496 4.96805 11.9795 5.66305C11.9312 5.73464 11.9742 5.83123 12.0594 5.84609C12.1776 5.86702 12.2985 5.87783 12.4221 5.88121C13.6544 5.91363 14.7604 5.11596 15.066 3.9144C15.5193 2.13131 14.1903 0.529905 12.498 0.529905Z" fill="#864AFC"/>
<path d="M14.7585 7.13468C14.3677 7.03877 13.31 6.90369 12.3262 6.92192C12.3114 6.92395 12.3033 6.93408 12.302 6.94083C12.3 6.95029 12.304 6.9665 12.3235 6.97663C12.7781 7.20289 14.5355 8.18697 14.3146 10.2625C14.3052 10.3523 14.3771 10.43 14.4664 10.4165C14.8989 10.3544 16.0116 10.1139 16.3568 9.36489C16.5475 8.9691 16.5475 8.50914 16.3568 8.11268C16.1311 7.62908 15.5865 7.29745 14.7585 7.13468Z" fill="#864AFC"/>
<path opacity="0.4" d="M4.00173 0.530088C2.30943 0.530088 0.980437 2.13149 1.4344 3.91459C1.73929 5.11615 2.84533 5.91381 4.07762 5.88139C4.20118 5.87801 4.32273 5.86653 4.44026 5.84627C4.52554 5.83141 4.56852 5.73483 4.52017 5.66323C4.05009 4.96756 3.78214 4.13072 3.78214 3.23242C3.78214 2.29427 4.07493 1.42096 4.5833 0.704344C4.59941 0.682056 4.6115 0.64761 4.59538 0.621944C4.58195 0.601006 4.5571 0.590199 4.5336 0.584796C4.36236 0.549675 4.18574 0.530088 4.00173 0.530088Z" fill="#864AFC"/>
<path d="M0.143544 8.11249C-0.0478478 8.50896 -0.0478478 8.96891 0.143544 9.36538C0.488719 10.1137 1.60148 10.3549 2.03395 10.4163C2.12327 10.4298 2.19445 10.3528 2.18505 10.2623C1.96411 8.18746 3.72155 7.20338 4.17686 6.97712C4.19567 6.96631 4.1997 6.95078 4.19768 6.94064C4.19634 6.93389 4.18895 6.92376 4.17418 6.92241C3.18969 6.9035 2.13267 7.03858 1.74116 7.13449C0.913138 7.29726 0.369184 7.62889 0.143544 8.11249Z" fill="#864AFC"/>
</svg>
