<svg width="15" height="15" viewBox="0 0 15 15" fill="none" xmlns="http://www.w3.org/2000/svg">
<path opacity="0.4" d="M7.5 15C3.35775 15 0 11.643 0 7.5C0 3.3585 3.35775 0 7.5 0C11.6423 0 15 3.3585 15 7.5C15 11.643 11.6423 15 7.5 15Z" fill="#FEABBD"/>
<path fill-rule="evenodd" clip-rule="evenodd" d="M8.15259 4.6582V7.9732C8.15259 8.3347 7.85784 8.62945 7.49634 8.62945C7.13484 8.62945 6.84009 8.3347 6.84009 7.9732V4.6582C6.84009 4.2967 7.13484 4.00195 7.49634 4.00195C7.85784 4.00195 8.15259 4.2967 8.15259 4.6582ZM7.50387 11.0091C7.14012 11.0091 6.84387 10.7143 6.84387 10.3528C6.84387 9.99134 7.13712 9.69659 7.49637 9.69659C7.86612 9.69659 8.16012 9.99134 8.16012 10.3528C8.16012 10.7143 7.86612 11.0091 7.50387 11.0091Z" fill="#FC4A71"/>
</svg>
