<svg width="15" height="15" viewBox="0 0 15 15" fill="none" xmlns="http://www.w3.org/2000/svg">
<path opacity="0.4" d="M4 0C1.44667 0 0 1.44667 0 4V11C0 13.5533 1.44667 15 4 15H11.0067C13.56 15 15 13.5533 15 11V4C15 1.44667 13.56 0 11.0067 0H4Z" fill="#864AFC"/>
<path d="M3.40649 6.1534V11.3067C3.40649 11.6467 3.68649 11.9267 4.02649 11.9267C4.37316 11.9267 4.65316 11.6467 4.65316 11.3067V6.1534C4.65316 5.80673 4.37316 5.52673 4.02649 5.52673C3.68649 5.52673 3.40649 5.80673 3.40649 6.1534Z" fill="#864AFC"/>
<path d="M6.90656 3.69344V11.3068C6.90656 11.6468 7.18656 11.9268 7.52656 11.9268C7.87322 11.9268 8.15322 11.6468 8.15322 11.3068V3.69344C8.15322 3.34677 7.87322 3.06677 7.52656 3.06677C7.18656 3.06677 6.90656 3.34677 6.90656 3.69344Z" fill="#864AFC"/>
<path d="M10.3533 8.87337V11.3067C10.3533 11.6467 10.6333 11.9267 10.9733 11.9267C11.32 11.9267 11.6 11.6467 11.6 11.3067V8.87337C11.6 8.5267 11.32 8.2467 10.98 8.2467C10.6333 8.2467 10.3533 8.5267 10.3533 8.87337Z" fill="#864AFC"/>
</svg>
