<svg width="44" height="44" viewBox="0 0 44 44" fill="none" xmlns="http://www.w3.org/2000/svg">
<path fill-rule="evenodd" clip-rule="evenodd" d="M12.4656 44H31.5322C38.9908 44 44 38.7681 44 30.9832V13.0168C44 5.23184 38.9908 0 31.5344 0H12.4656C5.00917 0 0 5.23184 0 13.0168V30.9832C0 38.7681 5.00917 44 12.4656 44ZM14.2975 19.8C11.2644 19.8 8.79998 17.3322 8.79998 14.3C8.79998 11.2678 11.2644 8.80001 14.2975 8.80001C17.3283 8.80001 19.7949 11.2678 19.7949 14.3C19.7949 17.3322 17.3283 19.8 14.2975 19.8ZM39.2058 28.4547C39.9424 30.3437 39.5597 32.6141 38.7722 34.4849C37.8386 36.7098 36.0511 38.3945 33.799 39.1301C32.799 39.457 31.7504 39.6 30.704 39.6H12.163C10.318 39.6 8.68532 39.1573 7.3469 38.3332C6.50845 37.8155 6.36023 36.6213 6.98188 35.8471C8.02164 34.553 9.04813 33.2543 10.0835 31.9443C12.0568 29.4378 13.3864 28.7113 14.8642 29.3493C15.4637 29.6126 16.0654 30.0077 16.6849 30.4254C18.3352 31.547 20.6294 33.0886 23.6513 31.4153C25.7193 30.2571 26.9187 28.2703 27.9632 26.5402L27.9807 26.5113C28.0546 26.3902 28.1278 26.2691 28.2007 26.1483L28.2012 26.1475C28.5523 25.5667 28.8986 24.9936 29.2904 24.4657C29.7815 23.805 31.6022 21.7389 33.9605 23.2101C35.4626 24.1365 36.7258 25.3897 38.0775 26.7315C38.593 27.2446 38.9602 27.8281 39.2058 28.4547Z" fill="#717171"/>
</svg>
