<svg width="15" height="14" viewBox="0 0 15 14" fill="none" xmlns="http://www.w3.org/2000/svg">
<path opacity="0.4" d="M11.2275 13.5004H11.22H3.7875C1.7025 13.5004 0 11.8129 0 9.72037V9.71287C0 9.71287 0.0045 6.39337 0.0105 4.72387C0.01125 4.41037 0.37125 4.23487 0.6165 4.42987C2.3985 5.84362 5.58525 8.42137 5.625 8.45512C6.1575 8.88187 6.8325 9.12262 7.5225 9.12262C8.2125 9.12262 8.8875 8.88187 9.42 8.44687C9.45975 8.42062 12.5753 5.92012 14.3843 4.48312C14.6303 4.28737 14.9918 4.46287 14.9925 4.77562C15 6.43237 15 9.70537 15 9.70537C15 11.7979 13.32 13.4929 11.2275 13.5004Z" fill="#FC4A71"/>
<path d="M11.2726 0H3.7876C2.3806 0 1.1026 0.7815 0.453096 2.0055C0.307596 2.27925 0.376596 2.6205 0.618846 2.814L6.1876 7.26825C6.5776 7.58325 7.0501 7.74 7.5226 7.74C7.5256 7.74 7.52785 7.74 7.5301 7.74C7.53235 7.74 7.53535 7.74 7.5376 7.74C8.0101 7.74 8.4826 7.58325 8.8726 7.26825L14.4413 2.814C14.6836 2.6205 14.7526 2.27925 14.6071 2.0055C13.9576 0.7815 12.6796 0 11.2726 0Z" fill="#FC4A71"/>
</svg>
