<svg width="15" height="15" viewBox="0 0 15 15" fill="none" xmlns="http://www.w3.org/2000/svg">
<path opacity="0.4" d="M7.5 15C3.35775 15 0 11.643 0 7.5C0 3.3585 3.35775 0 7.5 0C11.6423 0 15 3.3585 15 7.5C15 11.643 11.6423 15 7.5 15Z" fill="#157E72"/>
<path d="M9.89226 10.2822L6.94776 8.52571C6.77826 8.42371 6.67401 8.23996 6.67401 8.04196V4.25671C6.67401 3.94621 6.92601 3.69421 7.23651 3.69421C7.54701 3.69421 7.79901 3.94621 7.79901 4.25671V7.72246L10.469 9.31471C10.7353 9.47446 10.823 9.81946 10.664 10.0865C10.5583 10.2627 10.3715 10.361 10.1803 10.361C10.082 10.361 9.98301 10.3355 9.89226 10.2822Z" fill="#157E72"/>
</svg>
