<svg width="15" height="15" viewBox="0 0 15 15" fill="none" xmlns="http://www.w3.org/2000/svg">
<path opacity="0.4" d="M3.39339 0H7.11422C8.98112 0 10.5 1.4925 10.5 3.32774V11.6647C10.5 13.5037 8.9773 15 7.10582 15H3.38652C1.51886 15 0 13.5075 0 11.6722V10.9672V3.33524C0 1.497 1.52268 0 3.39339 0Z" fill="#864AFC"/>
<path d="M12.6999 4.90934C12.4793 4.68434 12.1243 4.68434 11.9044 4.91084C11.6853 5.13734 11.686 5.50259 11.9059 5.72758L13.0753 6.92233H11.9541H5.66136C5.35093 6.92233 5.09893 7.18108 5.09893 7.49983C5.09893 7.81933 5.35093 8.07733 5.66136 8.07733H13.0753L11.9059 9.27208C11.686 9.49708 11.6853 9.86233 11.9044 10.0888C12.0147 10.2021 12.1586 10.2591 12.3032 10.2591C12.4464 10.2591 12.5903 10.2021 12.6999 10.0903L14.8342 7.90933C14.9401 7.80058 15 7.65358 15 7.49983C15 7.34683 14.9401 7.19983 14.8342 7.09108L12.6999 4.90934Z" fill="#864AFC"/>
</svg>
